M48
METRIC
T01C.5
T02C.8
T03C1.1
T04C2.3
T05C1.
;LEADER: 12 
;HEADER: 
;CODE  : ASCII 
;FILE  : Board_V_1_0-1-2.drl for  ... layers TOP and BOTTOM
;T01 Holesize 1. = 0.500000 Tolerance = +0.000000/-0.000000 PLATED MM Quantity = 8
;T02 Holesize 2. = 0.800000 Tolerance = +0.000000/-0.000000 PLATED MM Quantity = 27
;T04 Holesize 3. = 2.300000 Tolerance = +0.059900/-0.059900 PLATED MM Quantity = 2
;T05 Holesize 4. = 1.000000 Tolerance = +0.000000/-0.000000 NON_PLATED MM Quantity = 6
%
G90
T01
X0017304500Y0014180000
R07X-0000127000
T02
X0016080000Y0014640000
X0014844000Y0016019000
X0015496000Y0014715000
X0017247000Y0014494000
X0014217000Y0014667000
X0018110000Y0014900000
X0015030000Y0014390000
X0019051000Y0014374000
X0016040000Y0015944000
X0017775000Y0015227000
X0015367000Y0014244000
X0017454000Y0014588000
X0016389000Y0013912000
X0016976000Y0016020000
X0019121000Y0015995000
X0018676000Y0015682000
X0018524000Y0014628000
X0018026000Y0014700000
X0016623000Y0014409000
X0018588000Y0015209000
X0014614000Y0015536000
X0014224000Y0014387000
X0014272000Y0015579000
X0016095500Y0015175500
X0016052000Y0014981000
X0015600000Y0015120000
X0015967000Y0015493000
T04
X0020392240Y0014329740
X0020392240Y0015643760
T05
X0019907250Y0013938250
R05X0000254000
M30
