G04 ================== begin FILE IDENTIFICATION RECORD ==================*
G04 Layout Name:  Board_V_1_0.brd*
G04 Film Name:    TOP*
G04 File Format:  Gerber RS274X*
G04 File Origin:  Cadence Allegro 16.6-S025*
G04 Origin Date:  Fri May 16 11:56:01 2014*
G04 *
G04 Layer:  ETCH/TOP*
G04 Layer:  PIN/TOP*
G04 Layer:  VIA CLASS/TOP*
G04 *
G04 Offset:    (0.0000 0.0000)*
G04 Mirror:    No*
G04 Mode:      Positive*
G04 Rotation:  0*
G04 FullContactRelief:  No*
G04 UndefLineWidth:     0.0010*
G04 ================== end FILE IDENTIFICATION RECORD ====================*
%FSLAX55Y55*MOMM*%
%IR0*IPPOS*OFA0.00000B0.00000*MIA0B0*SFA1.00000B1.00000*%
%ADD11R,2.X1.2*%
%ADD12R,1.X1.4*%
%ADD10O,4.X1.6*%
%ADD21O,1.8X4.*%
%ADD14R,1.3X1.05*%
%ADD17R,1.05X1.3*%
%ADD18C,1.*%
%ADD19C,2.*%
%ADD13C,1.1*%
%ADD22C,4.3*%
%ADD16C,1.6*%
%ADD20R,2.88X1.12*%
%ADD15R,1.5X1.5*%
%ADD23C,.3*%
%ADD24C,.4*%
%ADD25C,.6*%
%ADD26C,.2032*%
G75*
%LPD*%
G75*
G36*
G01X13463000Y13757000D02*
Y13863160D01*
X13706830D01*
Y14203840D01*
X13463000D01*
Y14348500D01*
G02X13479800Y14356190I10160J-1D01*
G03X13558260Y14326990I78460J90810D01*
G01X13798260D01*
G03X13862720Y14548250I0J120020D01*
G02X13868180Y14566980I5457J8570D01*
G01X14078270D01*
Y14611980D01*
X14110330D01*
G03Y14722020I106670J55020D01*
G01X14078270D01*
Y14767020D01*
X13818770D01*
Y14816970D01*
X14078270D01*
Y14876970D01*
X15394850D01*
G02X15402030Y14859630I-6J-10159D01*
G01X15379420Y14837020D01*
X15193420D01*
X14890420Y14534020D01*
X14889420D01*
X14568610Y14213210D01*
G02X14551270Y14220390I-7181J7186D01*
G01Y14234020D01*
X14341230D01*
Y14143520D01*
X14166490D01*
Y13923480D01*
X14341230D01*
Y13813980D01*
X14494670D01*
X14534310Y13774340D01*
G02X14527130Y13757000I-7186J-7181D01*
G01X13463000D01*
G37*
G36*
G01Y14545520D02*
Y15488480D01*
G02X13479800Y15496170I10160J-1D01*
G03X13558260Y15466970I78460J90810D01*
G01X13737910D01*
Y15334820D01*
G02X13722970Y15325850I-10161J-3D01*
G03X13699540Y15149400I-44711J-83844D01*
G02X13711980Y15139500I2281J-9899D01*
G01Y14894500D01*
G02X13699540Y14884600I-10159J-1D01*
G03X13723710Y14708550I-21281J-92606D01*
G02X13738730Y14699620I4859J-8924D01*
G01Y14674600D01*
X13786350Y14626980D01*
X13798230D01*
Y14567030D01*
X13558260D01*
G03X13479800Y14537830I0J-120010D01*
G02X13463000Y14545520I-6640J7691D01*
G37*
G36*
G01X20531960Y13775420D02*
G03X20576880Y13819880I-116706J162835D01*
G02X20590770Y13822290I8196J-6004D01*
G03X20787660Y13863520I78479J115960D01*
G02X20804840I8590J-5426D01*
G03X21041660I118410J74730D01*
G02X21058840I8590J-5426D01*
G03Y14012980I118410J74730D01*
G02X21041660I-8590J5426D01*
G03X20963270Y14072430I-118411J-74729D01*
G01Y14181340D01*
X20507590Y14637020D01*
X20262410D01*
X20235610Y14610220D01*
G02X20218270Y14617400I-7181J7186D01*
G01Y14676160D01*
X20737020Y15194910D01*
Y15983580D01*
X20504580Y16216020D01*
X17913580D01*
X17886580Y16243020D01*
X14121420D01*
X14067980Y16189580D01*
Y15819420D01*
X14170420Y15716980D01*
X14329420D01*
X14415980Y15630420D01*
Y15616420D01*
X14419980Y15612420D01*
Y15448580D01*
X14364420Y15393020D01*
X14360420D01*
X14261420Y15294020D01*
X14138590D01*
Y15527340D01*
X13918670D01*
G02X13909270Y15541360I-3J10159D01*
G03X13798260Y15707010I-111010J45628D01*
G01X13558260D01*
G03X13479800Y15677810I0J-120010D01*
G02X13463000Y15685500I-6640J7691D01*
G01Y15799910D01*
X13706830D01*
Y16140590D01*
X13463000D01*
Y16255000D01*
X21461000D01*
Y13757000D01*
X20537880D01*
G02X20531960Y13775420I-2J10161D01*
G37*
G36*
G01X14561310Y13860540D02*
X14551270Y13870580D01*
Y13999020D01*
X14406110D01*
G02X14398920Y14016360I-2J10160D01*
G01X14431540Y14048980D01*
X14551270D01*
Y14101480D01*
X14570080D01*
X14896250Y14427660D01*
G02X14913310Y14418090I7184J-7185D01*
G03X14986730Y14278050I116688J-28089D01*
G01X14989980Y14276800D01*
Y14270580D01*
X14887740Y14168340D01*
X14881570D01*
X14822900Y14109670D01*
X14718740D01*
X14644980Y14035910D01*
Y14024020D01*
X14569980D01*
Y13864130D01*
G02X14561310Y13860540I-5079J2D01*
G37*
G36*
G01X19726420Y14871490D02*
G02X19743100Y14882310I9489J3639D01*
G01X19778660Y14846740D01*
X19850230D01*
Y14790740D01*
X20195130D01*
G02X20202310Y14773400I-6J-10159D01*
G01X20161680Y14732770D01*
X19850230D01*
Y14540730D01*
X20141600D01*
G02X20148780Y14523390I-6J-10159D01*
G01X20039410Y14414020D01*
X19164150D01*
G03Y14333980I-113150J-40020D01*
G01X20072570D01*
X20124430Y14385840D01*
G02X20141600Y14376780I7184J-7184D01*
G03X20277210Y14102140I250642J-47040D01*
G02X20279510Y14085600I-4583J-9067D01*
G03X20253620Y14056620I135754J-147334D01*
G02X20239730Y14054210I-8196J6004D01*
G03X20042840Y14012980I-78479J-115960D01*
G02X20025660I-8590J5426D01*
G03Y13863520I-118410J-74730D01*
G02X20042840I8590J-5426D01*
G03X20239730Y13822290I118411J74730D01*
G02X20253620Y13819880I5694J-8414D01*
G03X20298540Y13775420I161626J118375D01*
G02X20292620Y13757000I-5918J-8259D01*
G01X16043520D01*
Y13935520D01*
X15828020D01*
Y13985480D01*
X16043520D01*
Y14170520D01*
X15978520D01*
Y14481920D01*
X16028290Y14531690D01*
G03X15985170Y14713570I51709J108311D01*
G02X15969960Y14712610I-8028J6228D01*
G01X15908020Y14774560D01*
Y15195420D01*
X16291020Y15578420D01*
Y15857280D01*
X16164280Y15984020D01*
X16153150D01*
G03X16140090Y15877770I-113150J-40019D01*
G02X16155750Y15879350I8475J-5603D01*
G01X16210980Y15824120D01*
Y15611580D01*
X16103130Y15503720D01*
G02X16085880Y15509510I-7185J7185D01*
G03X15853850Y15533020I-118879J-16510D01*
G01X15842720D01*
X15742980Y15433280D01*
Y15043580D01*
X15656410Y14957010D01*
X14078270D01*
Y15076970D01*
X15487960D01*
G03X15485830Y15157010I112040J43030D01*
G01X14078270D01*
Y15206660D01*
X14138590D01*
Y15213980D01*
X14294580D01*
X14393580Y15312980D01*
X14397580D01*
X14500020Y15415420D01*
Y15645580D01*
X14496020Y15649580D01*
Y15663580D01*
X14407210Y15752390D01*
G02X14414390Y15769730I7186J7181D01*
G01X14614770D01*
Y15817230D01*
X14960900D01*
X15235650Y16091980D01*
X16544350D01*
X17094980Y15541350D01*
Y15411350D01*
X17214970Y15291360D01*
G02X17207790Y15274020I-7186J-7181D01*
G01X16252740D01*
X16214200Y15235480D01*
G02X16198310Y15237420I-7187J7182D01*
G03X16000080Y15102690I-102809J-61930D01*
G02X15996690Y15087520I-8076J-6159D01*
G03X16165150Y14940980I55309J-106517D01*
G01X16263580D01*
X16321580Y14998980D01*
X18014830D01*
G02X18022260Y14981890I-1J-10160D01*
G03X18163040Y14792330I87740J-81895D01*
G01X18166300Y14793940D01*
X18190430Y14769820D01*
X18598450D01*
X18733450Y14634820D01*
X18738480D01*
Y14564980D01*
X18923520D01*
Y14775020D01*
X18738480D01*
Y14753820D01*
G02X18721140Y14746640I-10158J3D01*
G01X18670140Y14797640D01*
G02X18677320Y14814980I7183J7182D01*
G01X19232580D01*
X19331580Y14913980D01*
X19489080D01*
G02X19497480Y14898110I-2J-10159D01*
G03X19474980Y14825000I107529J-73110D01*
G01Y14770020D01*
X19361220D01*
X19316220Y14725020D01*
X19158520D01*
Y14775020D01*
X18973480D01*
Y14564980D01*
X19158520D01*
Y14614980D01*
X19361800D01*
X19406800Y14659980D01*
X19474980D01*
Y14605000D01*
G03X19735020I130020J0D01*
G01Y14825000D01*
G03X19726420Y14871490I-130018J-11D01*
G37*
G36*
G01X14387390Y15772210D02*
X14362580Y15797020D01*
X14203580D01*
X14148020Y15852580D01*
Y16156420D01*
X14154580Y16162980D01*
X14404730D01*
Y16015270D01*
X14346530D01*
Y16080270D01*
X14166490D01*
Y15860230D01*
X14346530D01*
Y15925230D01*
X14370600D01*
X14404730Y15891100D01*
Y15779390D01*
G02X14387390Y15772210I-10159J6D01*
G37*
G36*
G01X14614770Y15907270D02*
Y15954770D01*
X14468400D01*
X14435780Y15987390D01*
G02X14442970Y16004730I7186J7181D01*
G01X14614770D01*
Y16042230D01*
X14640240D01*
X14648760Y16050750D01*
X14715620D01*
G02X14725640Y16038910I1J-10159D01*
G03X14768930Y15925360I118358J-19904D01*
G02X14762570Y15907270I-6354J-7929D01*
G01X14614770D01*
G37*
G36*
G01X14806910Y13774340D02*
X14826550Y13793980D01*
X15060020D01*
Y13817410D01*
G02X15077360Y13824590I10159J-6D01*
G01X15098970Y13802980D01*
X15103230D01*
Y13757000D01*
X14814090D01*
G02X14806910Y13774340I6J10159D01*
G37*
G36*
G01X15085890Y13929260D02*
X15066130Y13949020D01*
X15060020D01*
Y14024020D01*
X14933880D01*
G02X14930290Y14032690I2J5079D01*
G01X14935580Y14037980D01*
X15103230D01*
Y13985480D01*
X15172360D01*
X15204980Y13952860D01*
G02X15197800Y13935520I-7186J-7181D01*
G01X15103190D01*
G02X15085890Y13929260I-10117J925D01*
G37*
G36*
G01X15490890Y14294490D02*
G02X15474600Y14297170I-7184J7183D01*
G03X15436880Y14341580I-107601J-53168D01*
G02X15435620Y14357020I5921J8255D01*
G01X15731580Y14652980D01*
X15761580D01*
X15815020Y14706420D01*
Y14832580D01*
X15761580Y14886020D01*
X15723140D01*
G02X15715960Y14903360I6J10159D01*
G01X15810640Y14998040D01*
G02X15827980Y14990860I7181J-7186D01*
G01Y14741400D01*
X15882890Y14686490D01*
X15490890Y14294490D01*
G37*
G36*
G01X14975140Y14118020D02*
G02X14967960Y14135360I6J10159D01*
G01X15070020Y14237420D01*
Y14276850D01*
G03X15003110Y14506970I-40021J113151D01*
G02X14993650Y14524050I-2272J9901D01*
G01X15226580Y14756980D01*
X15369770D01*
G02X15379620Y14744340I-2J-10159D01*
G03X15455980Y14601850I116379J-29338D01*
G01Y14583100D01*
X15457980Y14581100D01*
Y14578580D01*
X15168230Y14288830D01*
Y14170520D01*
X15103230D01*
Y14118020D01*
X14975140D01*
G37*
G36*
G01X15321440Y14015240D02*
X15313270D01*
Y14121330D01*
G02X15326830Y14130900I10159J-3D01*
G03X15435060Y14145140I40171J113099D01*
G02X15450980Y14136770I5761J-8367D01*
G01Y14070910D01*
X15412980Y14032910D01*
Y14021020D01*
X15337760D01*
G02X15321440Y14015240I-9936J2125D01*
G37*
G36*
G01X14904310Y15907270D02*
Y15915190D01*
X14906730Y15916680D01*
G03X14810340Y16134200I-62735J102317D01*
G01X14807450Y16133360D01*
X14795170Y16145640D01*
G02X14802360Y16162980I7188J7180D01*
G01X15154780D01*
G02X15161970Y16145640I4J-10159D01*
G01X14923600Y15907270D01*
X14904310D01*
G37*
G36*
G01X15614940Y13774340D02*
X15631580Y13790980D01*
X15833480D01*
Y13757000D01*
X15622120D01*
G02X15614940Y13774340I6J10159D01*
G37*
G36*
G01X15656140Y14021020D02*
G02X15648960Y14038360I6J10159D01*
G01X15684370Y14073770D01*
X15693630D01*
X15729420Y14037980D01*
X15833480D01*
Y14021020D01*
X15656140D01*
G37*
G36*
G01X15538020Y14597140D02*
Y14602520D01*
X15541190Y14603810D01*
G03X15590090Y14789510I-45190J111188D01*
G02X15598050Y14805980I7963J6310D01*
G01X15728420D01*
X15734980Y14799420D01*
Y14739580D01*
X15728420Y14733020D01*
X15698420D01*
X15555360Y14589960D01*
G02X15538020Y14597140I-7181J7186D01*
G37*
G36*
G01X15531020Y14037700D02*
Y14221420D01*
X15943330Y14633740D01*
G02X15960620Y14627600I7183J-7186D01*
G03X15971690Y14588290I119378J12404D01*
G01X15898480Y14515080D01*
Y14170520D01*
X15833480D01*
Y14118020D01*
X15762580D01*
X15726790Y14153810D01*
X15651210D01*
X15548980Y14051580D01*
Y14021020D01*
X15538810D01*
G02X15531020Y14037700I3J10160D01*
G37*
G36*
G01X15823020Y15248140D02*
Y15400120D01*
X15851250Y15428350D01*
G02X15866910Y15426770I7185J-7183D01*
G03X15950490Y15374120I100093J66228D01*
G02X15956280Y15356870I-1395J-10065D01*
G01X15840360Y15240960D01*
G02X15823020Y15248140I-7181J7186D01*
G37*
G36*
G01X16165150Y15021020D02*
G03X16147420Y15053810I-113160J-39999D01*
G02X16150810Y15068980I8076J6159D01*
G03X16208650Y15135480I-55314J106515D01*
G01X16227400D01*
X16285900Y15193980D01*
X17531100D01*
X17628720Y15096360D01*
G02X17621540Y15079020I-7186J-7181D01*
G01X16288420D01*
X16230420Y15021020D01*
X16165150D01*
G37*
G36*
G01X19310580Y15054020D02*
X19279580Y15085020D01*
X18437580D01*
X18383580Y15139020D01*
X17879360D01*
G02X17871210Y15155250I-2J10160D01*
G03X17731220Y15338750I-96211J71750D01*
G01X17728130Y15337540D01*
X17713950Y15351720D01*
X17687950D01*
X17673950Y15365720D01*
X17267950D01*
X17185020Y15448650D01*
Y15578650D01*
X16618030Y16145640D01*
G02X16625220Y16162980I7186J7181D01*
G01X17853420D01*
X17880420Y16135980D01*
X20471420D01*
X20656980Y15950420D01*
Y15717980D01*
G02X20637070Y15715140I-10159J7D01*
G03X20175960Y15508630I-244827J-71388D01*
G02X20167350Y15493090I-8616J-5382D01*
G01X19789910D01*
Y15458300D01*
G02X19770900Y15453320I-10158J2D01*
G03X19414660Y15360000I-165897J-93320D01*
G01Y15140000D01*
G03X19428790Y15068020I190342J-12D01*
G02X19419390Y15054020I-9404J-3842D01*
G01X19310580D01*
G37*
G36*
G01X18447580Y14895020D02*
X18300960Y15041640D01*
G02X18308140Y15058980I7186J7181D01*
G01X18350420D01*
X18404420Y15004980D01*
X19246420D01*
X19277900Y14973500D01*
X19199420Y14895020D01*
X18447580D01*
G37*
G36*
G01X18220940Y14854220D02*
G03X18197740Y14981890I-110942J45783D01*
G02X18205170Y14998980I7431J6930D01*
G01X18230420D01*
X18371880Y14857520D01*
G02X18364700Y14840180I-7186J-7181D01*
G01X18230340D01*
G02X18220940Y14854220I-8J10162D01*
G37*
G36*
G01X20218270Y14813880D02*
Y14982780D01*
X19850230D01*
Y14926780D01*
X19811820D01*
X19768600Y14970000D01*
X19832890Y15034290D01*
G02X19850230Y15027110I7181J-7186D01*
G01Y14994730D01*
X20218270D01*
Y15180410D01*
X20278590D01*
Y15399610D01*
G02X20292710Y15408960I10158J-4D01*
G03X20637070Y15572380I99530J234798D01*
G02X20656980Y15569540I9751J-2847D01*
G01Y15228070D01*
X20235610Y14806700D01*
G02X20218270Y14813880I-7181J7186D01*
G37*
G36*
G01X20787660Y14012980D02*
G03X20590770Y14054210I-118411J-74730D01*
G02X20576880Y14056620I-5694J8414D01*
G03X20532790Y14100480I-161622J-118379D01*
G02X20533140Y14117180I5962J8229D01*
G03X20645420Y14360320I-140900J212561D01*
G02X20662690Y14368720I10086J1217D01*
G01X20883230Y14148180D01*
Y14072430D01*
G03X20804840Y14012980I40021J-134179D01*
G02X20787660I-8590J5426D01*
G37*
%LPC*%
G75*
G36*
G01X16939020Y13769730D02*
X16753980D01*
Y13979770D01*
X16806480D01*
Y13984030D01*
X16838620Y14016160D01*
G03X16829220Y14033260I-7184J7185D01*
G02X16675920Y14090210I-32716J146738D01*
G02X16606000Y14116190I-6423J89791D01*
G02X16536080Y14090210I-63497J63811D01*
G02Y14269790I-120580J89790D01*
G02X16606000Y14243810I6423J-89791D01*
G02X16675920Y14269790I63497J-63811D01*
G02X16896470Y14292290I120583J-89789D01*
G01X16934200Y14330020D01*
X17339980D01*
Y14371420D01*
X17338970Y14372430D01*
X17311970D01*
X17298710Y14385690D01*
G02X17363480Y14465080I-51714J108306D01*
G03X17372040Y14452550I9862J-2452D01*
G01X17420020Y14404580D01*
Y14306580D01*
X17450020Y14276580D01*
Y14081030D01*
X17547020Y13984030D01*
Y13979770D01*
X17599520D01*
Y13769730D01*
X17414480D01*
Y13979810D01*
G03X17420740Y13997110I-925J10117D01*
G01X17369980Y14047870D01*
Y14096480D01*
G03X17354210Y14104950I-10160J0D01*
G02X17344520Y14099370I-49680J75068D01*
G01Y14080700D01*
X17312020Y14048200D01*
Y13979770D01*
X17364520D01*
Y13769730D01*
X16988980D01*
Y13979770D01*
X17041480D01*
Y14010080D01*
X17124290Y14092890D01*
G03X17123230Y14108180I-7184J7184D01*
G02X17114000Y14116190I54251J71837D01*
G02X17031810Y14091940I-63499J63809D01*
G01X17029110Y14092510D01*
X16946580Y14009980D01*
X16945630D01*
X16932760Y13997110D01*
G03X16939020Y13979810I7185J-7183D01*
G01Y13769730D01*
G37*
%LPD*%
G75*
G36*
G01X17148890Y13979770D02*
G02X17141710Y13997110I6J10159D01*
G01X17217520Y14072920D01*
Y14099370D01*
G03X17241000Y14116190I-40004J80642D01*
G03X17246350Y14111280I63494J63814D01*
G02X17246970Y14096340I-6565J-7755D01*
G01X17231980Y14081360D01*
Y13979770D01*
X17148890D01*
G37*
G54D10*
X13678260Y14447010D03*
Y15586990D03*
G54D20*
X20034250Y14636750D03*
Y15336750D03*
Y15090750D03*
Y14886760D03*
G54D11*
X13938250Y14667000D03*
Y14916990D03*
Y15116990D03*
Y15367000D03*
G54D21*
X19605000Y14715000D03*
Y15250000D03*
G54D12*
X13556490Y14033500D03*
Y15970250D03*
X14256510Y14033500D03*
Y15970250D03*
G54D22*
X20392240Y14329740D03*
Y15643760D03*
G54D13*
X13678260Y14791990D03*
Y15242010D03*
G54D23*
G01X13938250Y14667000D02*
X13802930D01*
X13778750Y14691180D01*
Y14833620D01*
X13752000Y14860370D01*
Y15130000D01*
X13802930Y15180930D01*
Y15191630D01*
X13823610Y15212310D01*
X13834310D01*
X13876000Y15254000D01*
X14278000D01*
X14377000Y15353000D01*
X14381000D01*
X14460000Y15432000D01*
Y15629000D01*
X14456000Y15633000D01*
Y15647000D01*
X14346000Y15757000D01*
X14187000D01*
X14108000Y15836000D01*
Y16173000D01*
X14138000Y16203000D01*
X17870000D01*
X17897000Y16176000D01*
X20488000D01*
X20697000Y15967000D01*
Y15211490D01*
X20122260Y14636750D01*
X20034250D01*
G01X15967000Y15493000D02*
X15859300D01*
X15783000Y15416700D01*
Y15027000D01*
X15672990Y14916990D01*
X13938250D01*
G01Y15116990D02*
X15596990D01*
X15600000Y15120000D01*
G01X14685000Y13909000D02*
Y14019330D01*
X14735320Y14069650D01*
X14839480D01*
X14898150Y14128320D01*
X14904320D01*
X15030000Y14254000D01*
Y14390000D01*
G01X15208250Y14078000D02*
X14919000D01*
X14860330Y14019330D01*
X14855360D01*
X14834670Y13998640D01*
Y13993670D01*
X14813000Y13972000D01*
Y13847000D01*
X14795330Y13829330D01*
Y13819360D01*
X14774640Y13798670D01*
X14595360D01*
X14588030Y13806000D01*
X14559250D01*
X14458750Y13906500D01*
X14446250D01*
G01X15367000Y14244000D02*
Y14345000D01*
X15715000Y14693000D01*
X15745000D01*
X15775000Y14723000D01*
Y14816000D01*
X15745000Y14846000D01*
X15445000D01*
X15396000Y14797000D01*
X15210000D01*
X14907000Y14494000D01*
X14906000D01*
X14553500Y14141500D01*
X14446250D01*
G01X16040000Y15944000D02*
X16147700D01*
X16251000Y15840700D01*
Y15595000D01*
X15868000Y15212000D01*
Y14757980D01*
X15939490Y14686490D01*
X15491000Y14238000D01*
Y14054330D01*
X15453000Y14016330D01*
Y13906000D01*
G01X14945000Y13909000D02*
X15049550D01*
X15115550Y13843000D01*
X15208250D01*
G01Y14078000D02*
Y14006190D01*
X15239220Y13975220D01*
X15304780D01*
X15326000Y13954000D01*
Y13951000D01*
X15329000Y13948000D01*
Y13818000D01*
X15364000Y13783000D01*
X15567000D01*
X15589000Y13805000D01*
Y14035000D01*
X15667790Y14113790D01*
X15710210D01*
X15746000Y14078000D01*
X15938500D01*
G01X15496000Y14715000D02*
Y14599680D01*
X15498000Y14597680D01*
Y14562000D01*
X15208250Y14272250D01*
Y14078000D01*
G01X15713000Y13906000D02*
X15730000Y13889000D01*
X15831000D01*
X15877000Y13843000D01*
X15938500D01*
G01Y14078000D02*
Y14498500D01*
X16080000Y14640000D01*
G01X16052000Y14981000D02*
X16247000D01*
X16305000Y15039000D01*
X18247000D01*
X18431000Y14855000D01*
X19216000D01*
X19315000Y14954000D01*
X19728000D01*
X19795240Y14886760D01*
X20034250D01*
G01X16095500Y15175500D02*
X16210820D01*
X16269320Y15234000D01*
X17547680D01*
X17682680Y15099000D01*
X18367000D01*
X18421000Y15045000D01*
X19263000D01*
X19294000Y15014000D01*
X19756000D01*
X19832750Y15090750D01*
X20034250D01*
G01X17050500Y14180000D02*
Y14170500D01*
X16930000Y14050000D01*
X16929050D01*
X16846500Y13967450D01*
Y13874750D01*
G01X16923500Y14180000D02*
Y14262720D01*
X16950780Y14290000D01*
X17380000D01*
G01X17272000Y13874750D02*
Y14064780D01*
X17304500Y14097280D01*
Y14180000D01*
G01X17081500Y13874750D02*
Y13993500D01*
X17177500Y14089500D01*
Y14180000D01*
G01X17380000Y14290000D02*
X17410000Y14260000D01*
Y14064450D01*
X17507000Y13967450D01*
Y13874750D01*
G01X17247000Y14494000D02*
X17328550Y14412450D01*
X17355550D01*
X17380000Y14388000D01*
Y14290000D01*
G01X20923250Y13938250D02*
Y14164760D01*
X20491010Y14597000D01*
X20278990D01*
X20055990Y14374000D01*
X19051000D01*
G54D14*
X14446250Y13906500D03*
Y14141500D03*
X14509750Y15862250D03*
Y16097250D03*
X15208250Y13843000D03*
Y14078000D03*
X15938500Y13843000D03*
Y14078000D03*
G54D24*
G01X17775000Y15227000D02*
X17695300Y15306700D01*
X17669300D01*
X17655300Y15320700D01*
X17249300D01*
X17140000Y15430000D01*
Y15560000D01*
X16563000Y16137000D01*
X15217000D01*
X14942250Y15862250D01*
X14509750D01*
G01X14256510Y15970250D02*
X14389250D01*
X14497250Y15862250D01*
X14509750D01*
G54D15*
X14685000Y13909000D03*
X15453000Y13906000D03*
X14945000Y13909000D03*
X15713000Y13906000D03*
G54D25*
G01X13938250Y14667000D02*
X14217000D01*
G01X14256510Y14033500D02*
X14338250D01*
X14446250Y14141500D01*
G01X14844000Y16019000D02*
X14757230Y16105770D01*
X14625970D01*
X14617450Y16097250D01*
X14509750D01*
G01X19066000Y14670000D02*
X19339010D01*
X19384010Y14715000D01*
X19605000D01*
G54D16*
X14224000Y14387000D03*
X14217000Y14667000D03*
X14614000Y15536000D03*
X14272000Y15579000D03*
X15367000Y14244000D03*
X15030000Y14390000D03*
X15496000Y14715000D03*
X14844000Y16019000D03*
X16080000Y14640000D03*
X15967000Y15493000D03*
X15600000Y15120000D03*
X16052000Y14981000D03*
X16095500Y15175500D03*
X16040000Y15944000D03*
X16389000Y13912000D03*
X16623000Y14409000D03*
X16976000Y16020000D03*
X17454000Y14588000D03*
X17247000Y14494000D03*
X17775000Y15227000D03*
X18026000Y14700000D03*
X18524000Y14628000D03*
X18588000Y15209000D03*
X18110000Y14900000D03*
X19051000Y14374000D03*
X18676000Y15682000D03*
X19121000Y15995000D03*
G54D26*
G01X13556490Y13858080D02*
Y14033500D01*
G01D02*
Y14208920D01*
G01Y14033500D02*
X13711910D01*
G01X13938250Y15367000D02*
Y15532420D01*
G01X13732830Y15367000D02*
X13938250D01*
G01D02*
X14143670D01*
G01X13556490Y15794830D02*
Y15970250D01*
G01D02*
Y16145670D01*
G01Y15970250D02*
X13711910D01*
G01X16796500Y14024580D02*
Y14180000D01*
G01D02*
Y14335420D01*
G01X16415500Y14024580D02*
Y14180000D01*
G01D02*
Y14335420D01*
G01X16260080Y14180000D02*
X16415500D01*
G01X18110000Y14900000D02*
X18205000Y14805000D01*
X18613020D01*
X18748020Y14670000D01*
X18831000D01*
G01X19605000Y15250000D02*
Y15555420D01*
G01X19409580Y15250000D02*
X19605000D01*
G01X20034250Y15336750D02*
Y15498170D01*
G01Y15336750D02*
X20283670D01*
G54D17*
X16846500Y13874750D03*
X17081500D03*
X17507000D03*
X17272000D03*
X19066000Y14670000D03*
X18831000D03*
G54D18*
X16415500Y14180000D03*
X16542500D03*
X16669500D03*
X16796500D03*
X16923500D03*
X17050500D03*
X17177500D03*
X17304500D03*
G54D19*
X19907250Y13938250D03*
X20669250D03*
X20415250D03*
X20161250D03*
X21177250D03*
X20923250D03*
M02*
